<svg width="26" height="26" viewBox="0 0 26 26" fill="none" xmlns="http://www.w3.org/2000/svg">
<path fill-rule="evenodd" clip-rule="evenodd" d="M13.3018 1.80836C13.108 1.73087 12.892 1.73087 12.6982 1.80836L3.00022 5.68757L6.90625 7.24998L16.906 3.25007L13.3018 1.80836ZM19.0938 4.12515L9.09397 8.12507L13 9.68748L22.9998 5.68757L19.0938 4.12515ZM24.375 6.88766L13.8125 11.1127V23.9875L24.375 19.7625V6.88766ZM12.1875 23.9875V11.1127L1.625 6.88766V19.7625L12.1875 23.9875ZM12.0947 0.299582C12.6759 0.0671315 13.3241 0.0671314 13.9053 0.299582L25.4893 4.93318C25.7977 5.05657 26 5.35533 26 5.68757V19.7625C26 20.4269 25.5955 21.0245 24.9785 21.2712L13.3018 25.942C13.108 26.0194 12.892 26.0194 12.6982 25.942L1.02149 21.2712C0.404546 21.0245 0 20.4269 0 19.7625V5.68757C0 5.35533 0.202273 5.05657 0.510745 4.93318L12.0947 0.299582Z" fill="#1AB9DC"/>
</svg>
