<svg width="20" height="20" viewBox="0 0 20 19" fill="none" xmlns="http://www.w3.org/2000/svg">
<path fill-rule="evenodd" clip-rule="evenodd" d="M9.51453 16.2307C10.2781 16.2307 10.898 16.8511 10.898 17.6153C10.898 18.3795 10.2781 19 9.51453 19C8.75097 19 8.131 18.3795 8.131 17.6153C8.131 16.8511 8.75097 16.2307 9.51453 16.2307ZM14.3776 16.2307C15.1412 16.2307 15.7611 16.8511 15.7611 17.6153C15.7611 18.3795 15.1412 19 14.3776 19C13.6141 19 12.9942 18.3795 12.9942 17.6153C12.9942 16.8511 13.6141 16.2307 14.3776 16.2307ZM3.92007 5.28279C3.9299 5.33939 3.94246 5.39575 3.95766 5.45177C4.63098 7.92957 5.66654 11.741 6.2174 13.7682C6.43856 14.5825 7.17723 15.1475 8.0203 15.1475H15.8719C16.7149 15.1475 17.4535 14.5825 17.6748 13.7682C18.2256 11.741 19.2612 7.92957 19.9345 5.45177C20.0873 4.88964 19.9695 4.28827 19.616 3.82544C19.2625 3.36261 18.7137 3.09109 18.1315 3.09109H5.76056C5.68391 3.09109 5.60771 3.09572 5.53266 3.10509L4.89087 0.783305C4.76304 0.320475 4.34218 0 3.86238 0H1.0671C0.478086 0 0 0.47857 0 1.06802C0 1.65746 0.478086 2.13603 1.0671 2.13603H3.05038L3.92007 5.28279Z" fill="#1AB9DC"/>
</svg>
