<svg width="20" height="20" viewBox="0 0 20 20" fill="none" xmlns="http://www.w3.org/2000/svg">
<path d="M4.89697 5.06356L4.90534 5.11176C4.9097 5.13687 4.91543 5.16281 4.92267 5.18956L4.89697 5.06356ZM4.89697 5.06356L4.88394 5.0164L4.01425 1.86964L3.81149 1.13603H3.05038H1.0671C1.03123 1.13603 1 1.10603 1 1.06802C1 1.03 1.03123 1 1.0671 1H3.86238C3.89208 1 3.91877 1.01989 3.92696 1.04953L3.92701 1.04973L4.5688 3.37152L4.79905 4.20449L5.6566 4.09738C5.6893 4.0933 5.72407 4.09109 5.76056 4.09109H18.1315C18.4017 4.09109 18.6567 4.21707 18.8213 4.43237C18.9857 4.64772 19.0406 4.92778 18.9695 5.18956L16.7098 13.506C16.7098 13.506 16.7098 13.506 16.7098 13.506C16.6067 13.8853 16.2631 14.1475 15.8719 14.1475H8.0203C7.62896 14.1475 7.28539 13.8852 7.18243 13.5061L7.18241 13.506L4.92279 5.18999L4.89697 5.06356Z" stroke="#1AB9DC" stroke-width="2"/>
<circle cx="9.5" cy="18.5" r="1.5" fill="#1AB9DC"/>
<circle cx="14.5" cy="18.5" r="1.5" fill="#1AB9DC"/>
</svg>
