<svg width="105" height="92" viewBox="0 0 105 92" fill="none" xmlns="http://www.w3.org/2000/svg" opacity="0.3">
<path fill-rule="evenodd" clip-rule="evenodd" d="M55.8878 0.686945C54.7658 0.604201 53.6385 0.5625 52.5079 0.5625V-6C53.7999 -6 55.0883 -5.95234 56.3706 -5.85778L55.8878 0.686945ZM69.0431 3.64064C66.938 2.82875 64.7758 2.17296 62.5744 1.67867L64.0125 -4.72437C66.5284 -4.15946 68.9994 -3.41001 71.4052 -2.48214L69.0431 3.64064ZM78.0333 8.30437C77.0932 7.67636 76.1327 7.08481 75.1538 6.53034L78.389 0.820418C79.5078 1.45411 80.6055 2.13017 81.6797 2.84785C82.754 3.56552 83.7988 4.32084 84.8124 5.11178L80.7744 10.2853C79.8875 9.59327 78.9733 8.93237 78.0333 8.30437ZM90.0714 20.0488C88.7722 18.2044 87.3388 16.4581 85.783 14.8242L90.5366 10.2991C92.3147 12.1664 93.9528 14.1622 95.4376 16.27L90.0714 20.0488ZM94.955 28.9205C94.5224 27.8762 94.0524 26.8507 93.5466 25.8459L99.4093 22.8954C99.9874 24.0438 100.524 25.2157 101.019 26.4091C101.513 27.6026 101.962 28.811 102.366 30.0317L96.1334 32.0903C95.7805 31.0222 95.3876 29.9648 94.955 28.9205ZM98.4385 45.3727C98.3831 43.1174 98.1616 40.8692 97.7759 38.6464L104.243 37.5245C104.684 40.0648 104.937 42.6341 105 45.2116L98.4385 45.3727ZM97.5695 55.462C97.7901 54.3533 97.9691 53.2396 98.1068 52.1232L104.621 52.9266C104.464 54.2025 104.259 55.4753 104.007 56.7422C103.755 58.0092 103.457 59.2634 103.114 60.5024L96.788 58.7522C97.0881 57.668 97.3489 56.5706 97.5695 55.462ZM91.3242 71.0765C92.5313 69.1705 93.5964 67.1782 94.5107 65.1158L100.511 67.7752C99.4662 70.1322 98.2489 72.4091 96.8694 74.5874L91.3242 71.0765ZM84.9955 78.9827C85.7949 78.1834 86.5626 77.3569 87.2975 76.5051L92.2674 80.7916C91.4275 81.7651 90.5502 82.7097 89.6366 83.6231L84.9955 78.9827Z" fill="url(#paint0_linear_69_3387)" fill-opacity="0.7"/>
<path fill-rule="evenodd" clip-rule="evenodd" d="M52.5079 0.5625C44.9523 0.5625 37.5133 2.42559 30.8499 5.98674C24.1864 9.54789 18.5042 14.6972 14.3065 20.9785C10.1089 27.2598 7.52531 34.4792 6.78473 41.9973C6.04416 49.5154 7.16941 57.1001 10.0608 64.0795C12.9522 71.0589 17.5205 77.2177 23.3611 82.0102C29.2016 86.8027 36.1342 90.081 43.5446 91.5548C50.955 93.0286 58.6146 92.6524 65.8449 90.4594C73.0751 88.2665 79.6529 84.3245 84.9955 78.9827L89.6366 83.6231C83.5307 89.728 76.0133 94.2331 67.7501 96.7394C59.487 99.2456 50.7332 99.6756 42.2641 97.9912C33.7951 96.3069 25.8722 92.5602 19.1973 87.083C12.5223 81.6059 7.3014 74.5674 3.99694 66.5909C0.692477 58.6144 -0.593523 49.9462 0.252853 41.3541C1.09923 32.762 4.05185 24.5112 8.84919 17.3326C13.6465 10.1539 20.1405 4.26902 27.7559 0.199133C35.3712 -3.87075 43.8729 -6 52.5079 -6V0.5625Z" fill="url(#paint1_linear_69_3387)" fill-opacity="0.7"/>
<path fill-rule="evenodd" clip-rule="evenodd" d="M49.2262 13.6875C51.0386 13.6875 52.5079 15.1566 52.5079 16.9688V51.1583L73.8266 63.3386C75.4002 64.2377 75.9469 66.242 75.0477 67.8155C74.1485 69.3889 72.1438 69.9355 70.5702 69.0364L47.598 55.9114C46.5755 55.3272 45.9444 54.24 45.9444 53.0625V16.9688C45.9444 15.1566 47.4137 13.6875 49.2262 13.6875Z" fill="url(#paint2_linear_69_3387)" fill-opacity="0.7"/>
<defs>
<linearGradient id="paint0_linear_69_3387" x1="62" y1="57" x2="-15" y2="198" gradientUnits="userSpaceOnUse">
<stop stop-color="white"/>
<stop offset="1" stop-opacity="0"/>
<stop offset="1" stop-color="#37D2F4" stop-opacity="0"/>
</linearGradient>
<linearGradient id="paint1_linear_69_3387" x1="62" y1="57" x2="-15" y2="198" gradientUnits="userSpaceOnUse">
<stop stop-color="white"/>
<stop offset="1" stop-opacity="0"/>
<stop offset="1" stop-color="#37D2F4" stop-opacity="0"/>
</linearGradient>
<linearGradient id="paint2_linear_69_3387" x1="62" y1="57" x2="-15" y2="198" gradientUnits="userSpaceOnUse">
<stop stop-color="white"/>
<stop offset="1" stop-opacity="0"/>
<stop offset="1" stop-color="#37D2F4" stop-opacity="0"/>
</linearGradient>
</defs>
</svg>
