<svg width="17" height="17" viewBox="0 0 17 17" fill="none" xmlns="http://www.w3.org/2000/svg">
<path d="M0.936533 17C0.67486 16.9995 0.42541 16.8892 0.249043 16.6958C0.0694238 16.504 -0.0198298 16.2447 0.00371059 15.9829L0.232252 13.4692L10.7899 2.9124L14.0893 6.21176L3.53444 16.7677L1.02142 16.9963C0.992502 16.9991 0.963585 17 0.936533 17ZM14.7479 5.55208L11.4494 2.25272L13.428 0.273659C13.6029 0.0984486 13.8403 0 14.0879 0C14.3355 0 14.5729 0.0984486 14.7479 0.273659L16.7264 2.25272C16.9016 2.42773 17 2.66522 17 2.91287C17 3.16051 16.9016 3.398 16.7264 3.57302L14.7488 5.55114L14.7479 5.55208Z" fill="#2E3A59"/>
</svg>
