<svg width="20" height="17" viewBox="0 0 20 17" fill="none" xmlns="http://www.w3.org/2000/svg">
<path d="M10 16.9924C9.355 16.4525 8.626 15.8908 7.85501 15.2933H7.84501C5.13001 13.1977 2.05302 10.8265 0.694021 7.98513C0.24754 7.08055 0.0109268 6.09637 1.14059e-05 5.09848C-0.00297038 3.72924 0.578792 2.41666 1.61383 1.45738C2.64886 0.498106 4.0498 -0.0268853 5.50001 0.00106128C6.68064 0.00282159 7.83584 0.324918 8.828 0.92898C9.26397 1.19609 9.65842 1.5192 10 1.88899C10.3435 1.52065 10.738 1.19773 11.173 0.92898C12.1647 0.324799 13.3197 0.00268353 14.5 0.00106128C15.9502 -0.0268853 17.3511 0.498106 18.3862 1.45738C19.4212 2.41666 20.003 3.72924 20 5.09848C19.9898 6.09796 19.7532 7.08382 19.306 7.98985C17.947 10.8312 14.871 13.2015 12.156 15.2933L12.146 15.3009C11.374 15.8946 10.646 16.4563 10.001 17L10 16.9924ZM5.50001 1.88899C4.56852 1.87799 3.67009 2.21451 3.00002 2.82541C2.3544 3.42404 1.99357 4.24423 1.99993 5.09848C2.01134 5.8258 2.18584 6.54261 2.51202 7.20163C3.15353 8.42757 4.01912 9.53706 5.06901 10.4791C6.06001 11.4231 7.20001 12.3368 8.186 13.1052C8.459 13.3176 8.737 13.5319 9.015 13.7462L9.19 13.8811C9.457 14.0869 9.733 14.3003 10 14.5098L10.013 14.4985L10.019 14.4938H10.025L10.034 14.4872H10.039H10.044L10.062 14.473L10.103 14.4419L10.11 14.4362L10.121 14.4286H10.127L10.136 14.4211L10.8 13.9066L10.974 13.7716C11.255 13.5555 11.533 13.3412 11.806 13.1288C12.792 12.3604 13.933 11.4476 14.924 10.4989C15.974 9.55736 16.8396 8.44815 17.481 7.2224C17.8131 6.55766 17.99 5.83336 18 5.09848C18.0041 4.24687 17.6435 3.42982 17 2.83296C16.3312 2.21931 15.4326 1.88001 14.5 1.88899C13.3619 1.87986 12.2739 2.33017 11.51 3.12653L10 4.76903L8.49 3.12653C7.72607 2.33017 6.63808 1.87986 5.50001 1.88899Z" fill="#1AB9DC"/>
</svg>
