<svg width="20" height="20" viewBox="0 0 28 28" fill="none" xmlns="http://www.w3.org/2000/svg">
<path d="M22.8125 26H6.1875C5.53167 26 5 25.4701 5 24.8163V13.4022C5.01839 13.1121 5.14207 12.8387 5.34794 12.6328L13.6604 4.34715C13.8832 4.12489 14.1854 4 14.5006 4C14.8158 4 15.118 4.12489 15.3407 4.34715L23.6532 12.6328C23.8761 12.8545 24.0011 13.1558 24 13.4697V24.8163C24 25.4701 23.4683 26 22.8125 26ZM13.7614 20.6439C14.0226 20.857 14.2756 21.0653 14.5 21.2653C14.7375 21.0558 15.0035 20.8392 15.2861 20.6096L15.3538 20.5539C16.7384 19.4283 18.4627 18.028 18.4627 16.2927C18.4624 15.7202 18.2311 15.1718 17.8207 14.7713C17.4103 14.3706 16.8555 14.1515 16.2812 14.1633C15.6018 14.1614 14.9537 14.4487 14.5 14.9528C14.0463 14.4486 13.3982 14.1613 12.7187 14.1633C12.1447 14.1522 11.5903 14.3718 11.1804 14.7726C10.7705 15.1732 10.5396 15.7216 10.5397 16.2939C10.5397 18.0233 12.2497 19.4141 13.6272 20.5315H13.626H13.6319L13.6533 20.5492H13.6592L13.6687 20.5717L13.7305 20.6226L13.7459 20.6344H13.7531L13.7614 20.6439Z" fill="#1AB9DC"/>
</svg>
