<svg width="20" height="20" viewBox="0 0 28 28" fill="none" xmlns="http://www.w3.org/2000/svg">
<path d="M22.1666 25.6667H5.83329C5.18897 25.6667 4.66663 25.1444 4.66663 24.5V13.2498C4.6847 12.9639 4.80621 12.6944 5.00846 12.4915L13.1751 4.32483C13.394 4.10576 13.6909 3.98267 14.0005 3.98267C14.3102 3.98267 14.6071 4.10576 14.826 4.32483L22.9926 12.4915C23.2116 12.71 23.3343 13.0069 23.3333 13.3163V24.5C23.3333 25.1444 22.811 25.6667 22.1666 25.6667ZM14 6.79933L6.99996 13.7993V23.3333H21V13.7993L14 6.79933ZM14 20.9988C13.7573 20.783 13.4831 20.5578 13.1926 20.3198L13.1378 20.2755C11.788 19.1742 10.1045 17.8033 10.1045 16.0988C10.1046 15.5341 10.3323 14.9932 10.736 14.5984C11.1396 14.2035 11.6854 13.9878 12.25 14C12.9175 13.9981 13.5542 14.2813 14 14.7782C14.4459 14.2814 15.0824 13.9984 15.75 14C16.3139 13.989 16.8586 14.2055 17.2614 14.6005C17.6641 14.9954 17.8909 15.5359 17.8908 16.1C17.8908 17.8103 16.1968 19.1905 14.8365 20.3L14.77 20.3548C14.4935 20.5812 14.2321 20.7947 13.9988 21.0012L14 20.9988Z" fill="#1AB9DC"/>
</svg>
