<svg width="7" height="9" viewBox="0 0 7 9" fill="none" xmlns="http://www.w3.org/2000/svg">
<path d="M3.49998 9C2.86845 8.46143 2.28308 7.87099 1.74999 7.23486C0.949996 6.27956 4.41829e-07 4.85685 4.41829e-07 3.50113C-0.000708635 2.0852 0.852119 0.808385 2.16052 0.2665C3.46893 -0.275385 4.97501 0.0244714 5.97597 1.02614C6.6342 1.68131 7.00292 2.57252 6.99998 3.50113C6.99998 4.85685 6.04997 6.27956 5.24997 7.23486C4.71688 7.87099 4.13151 8.46143 3.49998 9ZM3.49998 2.00144C2.96409 2.00144 2.4689 2.28728 2.20095 2.75129C1.933 3.21529 1.933 3.78697 2.20095 4.25098C2.4689 4.71499 2.96409 5.00082 3.49998 5.00082C4.32841 5.00082 4.99998 4.32939 4.99998 3.50113C4.99998 2.67288 4.32841 2.00144 3.49998 2.00144Z" fill="#1AB9DC"/>
</svg>
