<svg width="15" height="15" viewBox="0 0 15 15" fill="none" xmlns="http://www.w3.org/2000/svg">
<path fill-rule="evenodd" clip-rule="evenodd" d="M1.76701 0.479144C2.46276 -0.216603 3.61086 -0.145126 4.21493 0.631546L5.89657 2.79365C6.20517 3.19042 6.31422 3.70704 6.19231 4.19468L5.67923 6.24697C5.62507 6.46364 5.68855 6.69284 5.84647 6.85076L8.14957 9.15386C8.30749 9.31178 8.53669 9.37526 8.75336 9.3211L10.8056 8.80802C11.2933 8.68611 11.8099 8.79516 12.2067 9.10376L14.3688 10.7854C15.1455 11.3895 15.2169 12.5376 14.5212 13.2333L13.5519 14.2026C12.8584 14.8961 11.8211 15.2007 10.8544 14.8608C8.45413 14.0169 6.20112 12.6353 4.28305 10.7173C2.36498 8.79921 0.983411 6.5462 0.139539 4.14595C-0.200332 3.17925 0.104187 2.14197 0.797689 1.44847L1.76701 0.479144Z" fill="#1AB9DC"/>
</svg>
