<svg width="20" height="20" viewBox="0 0 19 19" fill="none" xmlns="http://www.w3.org/2000/svg">
<path d="M17.3811 19L10.8424 12.4606C7.93368 14.5284 3.92556 14.0226 1.62179 11.297C-0.681968 8.5714 -0.512809 4.53527 2.01094 2.01197C4.53403 -0.512448 8.57079 -0.682328 11.2971 1.62117C14.0234 3.92468 14.5295 7.93295 12.4613 10.8418L19 17.3812L17.3822 18.9989L17.3811 19ZM6.8643 2.28881C4.69471 2.28832 2.82291 3.81119 2.38218 5.93542C1.94144 8.05965 3.0529 10.2014 5.04364 11.064C7.03437 11.9266 9.35723 11.2729 10.6059 9.4987C11.8545 7.72453 11.6857 5.31749 10.2017 3.73491L10.8939 4.42134L10.1136 3.64338L10.0999 3.62966C9.24383 2.76838 8.07867 2.28554 6.8643 2.28881Z" fill="#1AB9DC"/>
</svg>
