<svg width="11" height="11" viewBox="0 0 11 11" fill="none" xmlns="http://www.w3.org/2000/svg">
<path fill-rule="evenodd" clip-rule="evenodd" d="M4.86724 1.36824C4.98716 1.14887 5.21716 1.01245 5.46719 1.01245C5.71712 1.01245 5.94713 1.14887 6.06705 1.36824C6.43402 2.0396 6.87573 2.84765 7.10511 3.26718C7.20339 3.44697 7.37713 3.5732 7.57847 3.61116C8.04831 3.69961 8.95338 3.87002 9.70526 4.01157C9.95086 4.05783 10.1517 4.23437 10.229 4.47213C10.3062 4.70989 10.2476 4.97083 10.076 5.1526C9.55089 5.70909 8.91894 6.37892 8.59083 6.72668C8.45017 6.87572 8.38381 7.07994 8.40996 7.28317C8.471 7.75734 8.58866 8.6707 8.68631 9.42961C8.71832 9.67747 8.61238 9.92308 8.41014 10.07C8.2079 10.2169 7.94156 10.2418 7.7157 10.1348C7.02414 9.8074 6.19184 9.41329 5.75977 9.20871C5.57457 9.12098 5.3598 9.12098 5.17461 9.20871C4.74245 9.41329 3.91015 9.8074 3.21868 10.1348C2.99273 10.2418 2.72639 10.2169 2.52415 10.07C2.322 9.92308 2.21606 9.67747 2.24798 9.42961C2.34571 8.6707 2.46329 7.75734 2.52433 7.28317C2.55057 7.07994 2.48421 6.87572 2.34355 6.72668C2.01544 6.37892 1.38339 5.70909 0.85828 5.1526C0.686788 4.97083 0.628091 4.70989 0.705362 4.47213C0.782542 4.23437 0.983427 4.05783 1.22903 4.01157C1.981 3.87002 2.88598 3.69961 3.35582 3.61116C3.55716 3.5732 3.73099 3.44697 3.82927 3.26718C4.05856 2.84765 4.50027 2.0396 4.86724 1.36824Z" fill="#F8B637"/>
</svg>
