<svg width="11" height="10" viewBox="0 0 11 10" fill="none" xmlns="http://www.w3.org/2000/svg">
<path d="M7.48597 3.10252L7.48583 3.1025C7.13734 3.0368 6.83656 2.81831 6.6664 2.50704C6.66639 2.50703 6.66639 2.50702 6.66638 2.50701L5.62832 0.608068C5.59606 0.549053 5.53426 0.512451 5.46719 0.512451C5.4 0.512451 5.33822 0.549079 5.30597 0.608052C5.30597 0.608058 5.30597 0.608063 5.30597 0.608069L4.26802 2.50697L4.268 2.50701C4.09779 2.81838 3.79687 3.03681 3.44846 3.1025L3.44832 3.10252L1.32157 3.50294C1.32156 3.50294 1.32155 3.50294 1.32153 3.50294C1.25543 3.51541 1.20159 3.56288 1.18093 3.62651L1.18088 3.62667C1.16013 3.69051 1.17588 3.76061 1.22194 3.80945L7.48597 3.10252ZM7.48597 3.10252L9.61272 3.50294C9.61273 3.50294 9.61274 3.50294 9.61275 3.50294C9.67878 3.51539 9.73267 3.5628 9.75345 3.62651C9.77424 3.69058 9.75839 3.76067 9.71241 3.80938L9.71235 3.80945L8.22719 5.3835C7.98367 5.64154 7.86878 5.99514 7.91405 6.34698L7.91405 6.34701L8.1904 8.49342L8.19043 8.49365C8.19899 8.55997 8.17068 8.62592 8.11632 8.66549C8.06189 8.70502 7.9903 8.71162 7.9298 8.68295L7.92964 8.68287L5.97382 7.75685C5.9738 7.75684 5.97377 7.75682 5.97375 7.75681C5.65312 7.60496 5.2813 7.60495 4.96067 7.75679C4.96063 7.75681 4.96059 7.75683 4.96056 7.75685L3.00472 8.68288L3.00465 8.68291C2.94398 8.71165 2.87237 8.705 2.81797 8.66549L2.52415 9.07005M7.48597 3.10252L1.22197 3.80948L2.70719 5.3835C2.7072 5.38352 2.70722 5.38354 2.70723 5.38355C2.95067 5.64154 3.06561 5.9951 3.02024 6.34701C3.02023 6.34707 3.02022 6.34713 3.02021 6.34719L2.74388 8.49347C2.73532 8.55999 2.76377 8.62608 2.81817 8.66563L2.52415 9.07005M2.52415 9.07005C2.72639 9.21693 2.99273 9.24181 3.21868 9.13479L1.22903 3.01157C0.983427 3.05783 0.782542 3.23437 0.705362 3.47213C0.628091 3.70989 0.686788 3.97083 0.85828 4.1526L2.34355 5.72668C2.48421 5.87572 2.55057 6.07994 2.52433 6.28317L2.24798 8.42961C2.21606 8.67747 2.322 8.92308 2.52415 9.07005Z" stroke="#F8B637"/>
</svg>
