<svg width="12" height="12" viewBox="0 0 12 12" fill="none" xmlns="http://www.w3.org/2000/svg">
<path fill-rule="evenodd" clip-rule="evenodd" d="M6 10.375C8.41625 10.375 10.375 8.41625 10.375 6C10.375 3.58375 8.41625 1.625 6 1.625C3.58375 1.625 1.625 3.58375 1.625 6C1.625 8.41625 3.58375 10.375 6 10.375ZM11 6C11 8.76142 8.76142 11 6 11C3.23858 11 1 8.76142 1 6C1 3.23858 3.23858 1 6 1C8.76142 1 11 3.23858 11 6Z" fill="white"/>
<path d="M10.125 6C10.125 8.27817 8.27817 10.125 6 10.125V10.625C8.55432 10.625 10.625 8.55432 10.625 6H10.125ZM6 1.875C8.27817 1.875 10.125 3.72183 10.125 6H10.625C10.625 3.44568 8.55432 1.375 6 1.375V1.875ZM1.875 6C1.875 3.72183 3.72183 1.875 6 1.875V1.375C3.44568 1.375 1.375 3.44568 1.375 6H1.875ZM6 10.125C3.72183 10.125 1.875 8.27817 1.875 6H1.375C1.375 8.55432 3.44568 10.625 6 10.625V10.125ZM6 11.25C8.89949 11.25 11.25 8.89949 11.25 6H10.75C10.75 8.62335 8.62335 10.75 6 10.75V11.25ZM0.75 6C0.75 8.89949 3.1005 11.25 6 11.25V10.75C3.37665 10.75 1.25 8.62335 1.25 6H0.75ZM6 0.75C3.1005 0.75 0.75 3.1005 0.75 6H1.25C1.25 3.37665 3.37665 1.25 6 1.25V0.75ZM11.25 6C11.25 3.1005 8.89949 0.75 6 0.75V1.25C8.62335 1.25 10.75 3.37665 10.75 6H11.25Z" fill="white"/>
<path fill-rule="evenodd" clip-rule="evenodd" d="M5.6875 2.875C5.86009 2.875 6 3.01491 6 3.1875V6.44365L8.03004 7.60367C8.17989 7.6893 8.23195 7.88019 8.14633 8.03004C8.0607 8.17989 7.86981 8.23195 7.71996 8.14633L5.53246 6.89633C5.43509 6.84069 5.375 6.73714 5.375 6.625V3.1875C5.375 3.01491 5.51491 2.875 5.6875 2.875Z" fill="white"/>
<path d="M6 6.44365H5.75C5.75 6.53336 5.79807 6.6162 5.87597 6.66071L6 6.44365ZM8.03004 7.60367L7.90601 7.82073L7.90601 7.82073L8.03004 7.60367ZM8.14633 8.03004L7.92927 7.90601L7.92927 7.90601L8.14633 8.03004ZM7.71996 8.14633L7.84399 7.92927L7.84399 7.92927L7.71996 8.14633ZM5.53246 6.89633L5.40842 7.11339L5.40842 7.11339L5.53246 6.89633ZM6.25 3.1875C6.25 2.87684 5.99816 2.625 5.6875 2.625V3.125C5.72202 3.125 5.75 3.15298 5.75 3.1875H6.25ZM6.25 6.44365V3.1875H5.75V6.44365H6.25ZM8.15408 7.38661L6.12403 6.22659L5.87597 6.66071L7.90601 7.82073L8.15408 7.38661ZM8.36339 8.15408C8.51752 7.88435 8.42381 7.54074 8.15408 7.38661L7.90601 7.82073C7.93598 7.83786 7.94639 7.87604 7.92927 7.90601L8.36339 8.15408ZM7.59592 8.36339C7.86565 8.51752 8.20926 8.42381 8.36339 8.15408L7.92927 7.90601C7.91214 7.93598 7.87396 7.94639 7.84399 7.92927L7.59592 8.36339ZM5.40842 7.11339L7.59592 8.36339L7.84399 7.92927L5.65649 6.67927L5.40842 7.11339ZM5.125 6.625C5.125 6.82686 5.23316 7.01324 5.40842 7.11339L5.65649 6.67927C5.63702 6.66814 5.625 6.64743 5.625 6.625H5.125ZM5.125 3.1875V6.625H5.625V3.1875H5.125ZM5.6875 2.625C5.37684 2.625 5.125 2.87684 5.125 3.1875H5.625C5.625 3.15298 5.65298 3.125 5.6875 3.125V2.625Z" fill="white"/>
</svg>
