<svg width="18" height="18" viewBox="0 0 18 18" fill="none" xmlns="http://www.w3.org/2000/svg">
<path fill-rule="evenodd" clip-rule="evenodd" d="M11.3258 0.979648C10.0504 -0.326549 7.94964 -0.326549 6.6742 0.979648L5.97462 1.69609L4.97335 1.68416C3.14785 1.66242 1.66242 3.14785 1.68416 4.97335L1.69609 5.97462L0.979648 6.6742C-0.326549 7.94964 -0.326549 10.0504 0.979648 11.3258L1.69609 12.0254L1.68416 13.0267C1.66242 14.8522 3.14785 16.3376 4.97335 16.3158L5.97462 16.3039L6.6742 17.0204C7.94964 18.3265 10.0504 18.3265 11.3258 17.0204L12.0254 16.3039L13.0267 16.3158C14.8522 16.3376 16.3376 14.8522 16.3158 13.0267L16.3039 12.0254L17.0204 11.3258C18.3265 10.0504 18.3265 7.94964 17.0204 6.6742L16.3039 5.97462L16.3158 4.97335C16.3376 3.14785 14.8522 1.66242 13.0267 1.68416L12.0254 1.69609L11.3258 0.979648ZM11.6477 7.71025C11.8674 7.49058 11.8674 7.13442 11.6477 6.91475C11.4281 6.69508 11.0719 6.69508 10.8523 6.91475L7.875 9.892L6.58525 8.60225C6.36558 8.38258 6.00942 8.38258 5.78975 8.60225C5.57008 8.82192 5.57008 9.17808 5.78975 9.39775L7.47725 11.0852C7.58274 11.1907 7.72582 11.25 7.875 11.25C8.02418 11.25 8.16726 11.1907 8.27275 11.0852L11.6477 7.71025Z" fill="#1AB9DC"/>
</svg>
